<svg width="40" height="40" viewBox="0 0 40 40" fill="none" xmlns="http://www.w3.org/2000/svg">
<g id="mingcute:arrows-down-line" clip-path="url(#clip0_38_562)">
<g id="Group">
<path id="Vector" fill-rule="evenodd" clip-rule="evenodd" d="M10.4882 10.4883C10.8008 10.1759 11.2246 10.0003 11.6666 10.0003C12.1085 10.0003 12.5323 10.1759 12.8449 10.4883L19.9999 17.6433L27.1549 10.4883C27.3086 10.3291 27.4925 10.2022 27.6959 10.1148C27.8992 10.0275 28.1179 9.98148 28.3392 9.97956C28.5605 9.97763 28.78 10.0198 28.9848 10.1036C29.1896 10.1874 29.3757 10.3112 29.5322 10.4676C29.6887 10.6241 29.8125 10.8102 29.8963 11.015C29.9801 11.2199 30.0222 11.4393 30.0203 11.6606C30.0184 11.8819 29.9724 12.1006 29.8851 12.304C29.7977 12.5073 29.6707 12.6912 29.5116 12.845L21.1782 21.1783C20.8657 21.4908 20.4418 21.6663 19.9999 21.6663C19.5579 21.6663 19.1341 21.4908 18.8216 21.1783L10.4882 12.845C10.1758 12.5324 10.0002 12.1086 10.0002 11.6666C10.0002 11.2247 10.1758 10.8009 10.4882 10.4883ZM10.4882 20.4883C10.8008 20.1759 11.2246 20.0003 11.6666 20.0003C12.1085 20.0003 12.5323 20.1759 12.8449 20.4883L19.9999 27.6433L27.1549 20.4883C27.4692 20.1847 27.8902 20.0167 28.3272 20.0205C28.7642 20.0243 29.1822 20.1996 29.4913 20.5086C29.8003 20.8176 29.9755 21.2356 29.9793 21.6726C29.9831 22.1096 29.8152 22.5306 29.5116 22.845L21.1782 31.1783C20.8657 31.4908 20.4418 31.6663 19.9999 31.6663C19.5579 31.6663 19.1341 31.4908 18.8216 31.1783L10.4882 22.845C10.1758 22.5324 10.0002 22.1086 10.0002 21.6666C10.0002 21.2247 10.1758 20.8009 10.4882 20.4883Z" fill="#757897"/>
</g>
</g>
<defs>
<clipPath id="clip0_38_562">
<rect width="40" height="40" fill="white"/>
</clipPath>
</defs>
</svg>
