<svg width="60" height="60" viewBox="0 0 60 60" fill="none" xmlns="http://www.w3.org/2000/svg">
<g id="octicon:log-16" clip-path="url(#clip0_343_35)">
<path id="Vector" d="M18.75 30.9375C18.75 30.1916 19.0463 29.4762 19.5738 28.9488C20.1012 28.4213 20.8166 28.125 21.5625 28.125H36.5625C37.3084 28.125 38.0238 28.4213 38.5512 28.9488C39.0787 29.4762 39.375 30.1916 39.375 30.9375C39.375 31.6834 39.0787 32.3988 38.5512 32.9262C38.0238 33.4537 37.3084 33.75 36.5625 33.75H21.5625C20.8166 33.75 20.1012 33.4537 19.5738 32.9262C19.0463 32.3988 18.75 31.6834 18.75 30.9375ZM15 39.375C14.2541 39.375 13.5387 39.6713 13.0113 40.1988C12.4838 40.7262 12.1875 41.4416 12.1875 42.1875C12.1875 42.9334 12.4838 43.6488 13.0113 44.1762C13.5387 44.7037 14.2541 45 15 45H30C30.7459 45 31.4613 44.7037 31.9887 44.1762C32.5162 43.6488 32.8125 42.9334 32.8125 42.1875C32.8125 41.4416 32.5162 40.7262 31.9887 40.1988C31.4613 39.6713 30.7459 39.375 30 39.375H15Z" fill="#2DF8BB"/>
<path id="Vector_2" d="M48.75 -0.0187988C54.9525 -0.0187988 60 4.9612 60 11.2312C60 14.9137 58.7325 18.48 57.0638 21.7987C55.4025 25.095 53.2088 28.3912 51.1313 31.5037L51.09 31.5675C48.96 34.7662 46.95 37.7887 45.4613 40.74C43.9688 43.6987 43.125 46.3425 43.125 48.75C43.1254 49.7217 43.3775 50.6768 43.8568 51.5222C44.3361 52.3675 45.0262 53.0743 45.8599 53.5736C46.6936 54.0729 47.6424 54.3477 48.6139 54.3712C49.5854 54.3947 50.5464 54.1662 51.4032 53.7078C52.2601 53.2494 52.9836 52.5769 53.5033 51.7557C54.0229 50.9345 54.3209 49.9928 54.3683 49.0221C54.4157 48.0515 54.2108 47.0852 53.7736 46.2173C53.3365 45.3494 52.6819 44.6096 51.8738 44.07C51.2779 43.6453 50.871 43.0053 50.7393 42.2855C50.6077 41.5658 50.7617 40.8231 51.1687 40.2151C51.5756 39.607 52.2036 39.1815 52.9191 39.0289C53.6347 38.8762 54.3816 39.0084 55.0013 39.3974C57.0074 40.7386 58.5291 42.6894 59.3418 44.9616C60.1544 47.2338 60.2148 49.7072 59.5141 52.0164C58.8135 54.3256 57.3888 56.3483 55.4506 57.7859C53.5123 59.2235 51.1632 59.9997 48.75 59.9999H11.25C8.26632 59.9999 5.40484 58.8147 3.29505 56.7049C1.18527 54.5951 6.04178e-06 51.7336 6.04178e-06 48.75C6.04178e-06 42.8175 3.34126 36.9937 6.66376 31.8525C7.44751 30.645 8.23126 29.4637 9.00001 28.305C10.7738 25.6462 12.4613 23.1075 13.8263 20.625H9.41251C7.25251 20.625 4.23376 20.1262 2.26126 17.6887C0.77545 15.8669 -0.0246976 13.5819 6.04178e-06 11.2312C6.04178e-06 8.24752 1.18527 5.38603 3.29505 3.27625C5.40484 1.16647 8.26632 -0.0187988 11.25 -0.0187988H48.75ZM48.75 5.6062C47.2582 5.6062 45.8274 6.19883 44.7725 7.25373C43.7176 8.30862 43.125 9.73936 43.125 11.2312C43.125 13.0162 43.9613 14.3587 45.6263 15.4762C46.127 15.8118 46.5067 16.2995 46.7093 16.8673C46.9119 17.4351 46.9267 18.053 46.7515 18.6298C46.5763 19.2066 46.2204 19.7119 45.7362 20.0711C45.2521 20.4303 44.6654 20.6245 44.0625 20.625H20.13C18.3788 24.3862 15.8513 28.1812 13.4813 31.7362C12.7613 32.82 12.0525 33.8774 11.3888 34.9049C7.98751 40.1662 5.62501 44.685 5.62501 48.75C5.62501 50.2418 6.21764 51.6725 7.27253 52.7274C8.32742 53.7823 9.75816 54.375 11.25 54.375H39.0038C38.0158 52.6651 37.497 50.7247 37.5 48.75C37.5 45.0787 38.7675 41.52 40.44 38.205C42.0938 34.9275 44.2763 31.65 46.3463 28.545L46.41 28.4475C48.54 25.2487 50.5463 22.23 52.0388 19.2675C53.5313 16.305 54.375 13.6537 54.375 11.2312C54.375 8.0887 51.8663 5.6062 48.75 5.6062ZM11.25 5.6062C9.75816 5.6062 8.32742 6.19883 7.27253 7.25373C6.21764 8.30862 5.62501 9.73936 5.62501 11.2312C5.62501 12.435 6.00001 13.365 6.63751 14.1487C7.00126 14.5987 7.85626 15 9.41251 15H38.19C37.7255 13.7981 37.4914 12.5196 37.5 11.2312C37.5 9.1837 38.0475 7.25995 39.0038 5.6062H11.25Z" fill="#2DF8BB"/>
</g>
<defs>
<clipPath id="clip0_343_35">
<rect width="60" height="60" fill="white"/>
</clipPath>
</defs>
</svg>
