<svg width="60" height="60" viewBox="0 0 60 60" fill="none" xmlns="http://www.w3.org/2000/svg">
<g id="octicon:graph-16">
<path id="Vector" d="M5.625 6.5625V50.625H57.1875C57.9334 50.625 58.6488 50.9213 59.1762 51.4488C59.7037 51.9762 60 52.6916 60 53.4375C60 54.1834 59.7037 54.8988 59.1762 55.4262C58.6488 55.9537 57.9334 56.25 57.1875 56.25H2.8125C2.06658 56.25 1.35121 55.9537 0.823762 55.4262C0.296316 54.8988 0 54.1834 0 53.4375L0 6.5625C0 5.81658 0.296316 5.10121 0.823762 4.57376C1.35121 4.04632 2.06658 3.75 2.8125 3.75C3.55842 3.75 4.27379 4.04632 4.80124 4.57376C5.32868 5.10121 5.625 5.81658 5.625 6.5625ZM59.175 16.05L39.4875 35.7375C38.9602 36.2642 38.2453 36.56 37.5 36.56C36.7547 36.56 36.0398 36.2642 35.5125 35.7375L26.25 26.475L16.05 36.675C15.5165 37.1715 14.8113 37.4419 14.0826 37.4293C13.3539 37.4167 12.6585 37.1222 12.1425 36.6075C11.6278 36.0915 11.3333 35.3961 11.3207 34.6674C11.3081 33.9387 11.5785 33.2335 12.075 32.7L24.2625 20.5125C24.7898 19.9858 25.5047 19.69 26.25 19.69C26.9953 19.69 27.7102 19.9858 28.2375 20.5125L37.5 29.775L55.2 12.075C55.7335 11.5785 56.4387 11.3081 57.1674 11.3207C57.896 11.3333 58.5915 11.6278 59.1075 12.1425C59.6222 12.6585 59.9167 13.3539 59.9293 14.0826C59.9419 14.8113 59.6715 15.5165 59.175 16.05Z" fill="white"/>
</g>
</svg>
